# xmcd
#
# Track frame offsets:
#	150
#	15058
#	26986
#	42446
#	53084
#	69374
#	85842
#	102488
#	119179
#	132173
#	148575
#	164860
#	180289
#	191075
#	201704
#	221302
#
# Disc length: 3117 seconds
#
# Revision: 0
# Processed by: cddbd v1.5.1PL0 Copyright (c) Steve Scherf et al.
# Submitted via: dBpowerAMP V4.0
#
DISCID=ee0c2b10
DTITLE=Suzanne Prentice - Heartache (Love songs) CD2 (tra)
DYEAR=2003
DGENRE=Country
TTITLE0=01 - Could I have this dance
TTITLE1=02 - What I've got in mind
TTITLE2=03 - You needed me
TTITLE3=04 - Love is like a butterfly
TTITLE4=05 - Come on over
TTITLE5=06 - I believe
TTITLE6=07 - Blanket on the ground
TTITLE7=08 - You Light up my life
TTITLE8=09 - If you love me (let me know)
TTITLE9=10 - I honestly love you
TTITLE10=11 - Together again
TTITLE11=12 - Sing me a old fashioned love song
TTITLE12=13 - Would you lay with me (in a field of stone)
TTITLE13=14 - Let it shine
TTITLE14=15 - Back home again
TTITLE15=16 - Let me be there
EXTD=
EXTT0=
EXTT1=
EXTT2=
EXTT3=
EXTT4=
EXTT5=
EXTT6=
EXTT7=
EXTT8=
EXTT9=
EXTT10=
EXTT11=
EXTT12=
EXTT13=
EXTT14=
EXTT15=
PLAYORDER=
